<svg width="77" height="77" viewBox="0 0 77 77" fill="none" xmlns="http://www.w3.org/2000/svg">
<circle cx="38.5" cy="38.5" r="38.5" fill="#2B4235"/>
<path d="M41.5 25.25C41.5 25.0041 41.4275 24.7638 41.2915 24.5589C41.1556 24.3541 40.9622 24.1939 40.7357 24.0983C40.5091 24.0028 40.2595 23.9762 40.0179 24.0219C39.7763 24.0675 39.5536 24.1834 39.3775 24.355L32.06 31.48H27.75C26.7554 31.48 25.8016 31.8751 25.0983 32.5784C24.3951 33.2816 24 34.2354 24 35.23V42.705C24 43.6996 24.3951 44.6534 25.0983 45.3566C25.8016 46.0599 26.7554 46.455 27.75 46.455H32.0575L39.375 53.6425C39.5508 53.8148 39.7735 53.9314 40.0153 53.9776C40.2571 54.0238 40.5071 53.9976 40.734 53.9023C40.961 53.807 41.1547 53.6468 41.291 53.4418C41.4273 53.2368 41.5 52.9961 41.5 52.75V25.25ZM44.2775 31.9725C44.3797 31.8439 44.5063 31.7367 44.6499 31.657C44.7936 31.5773 44.9516 31.5268 45.1148 31.5082C45.278 31.4896 45.4433 31.5034 45.6012 31.5488C45.7591 31.5941 45.9065 31.6701 46.035 31.7725L46.04 31.775L46.045 31.78L46.0575 31.79L46.095 31.8225L46.21 31.9225C46.3017 32.0058 46.42 32.1242 46.565 32.2775C46.8475 32.585 47.215 33.0325 47.5775 33.6275C48.305 34.8275 49.01 36.61 49.01 38.9975C49.01 41.3825 48.305 43.1675 47.5775 44.3675C47.2858 44.8508 46.9466 45.3039 46.565 45.72C46.4044 45.8911 46.2359 46.0547 46.06 46.21L46.04 46.2275H46.0375C46.0375 46.2275 44.92 46.835 44.28 46.0325C44.0742 45.775 43.9784 45.4467 44.0136 45.1189C44.0487 44.7912 44.2118 44.4905 44.4675 44.2825L44.4725 44.2775L44.5175 44.2375C44.5642 44.1958 44.635 44.125 44.73 44.025C44.9977 43.731 45.2356 43.4111 45.44 43.07C45.965 42.2075 46.51 40.865 46.51 38.995C46.51 37.125 45.965 35.7875 45.44 34.9275C45.1826 34.5035 44.8735 34.113 44.52 33.765L44.475 33.725C44.2171 33.5183 44.0515 33.2179 44.0145 32.8895C43.9775 32.5611 44.0721 32.2314 44.2775 31.9725ZM48.5325 26.7725C48.4045 26.6666 48.2567 26.5873 48.0977 26.5391C47.9388 26.491 47.7718 26.475 47.6066 26.4922C47.4413 26.5093 47.2812 26.5592 47.1355 26.639C46.9897 26.7187 46.8614 26.8267 46.7579 26.9566C46.6544 27.0865 46.5778 27.2358 46.5326 27.3956C46.4875 27.5555 46.4746 27.7227 46.4948 27.8876C46.515 28.0525 46.5679 28.2117 46.6504 28.3559C46.7328 28.5001 46.8432 28.6264 46.975 28.7275L47.0025 28.7525L47.1325 28.865C47.2525 28.97 47.42 29.1325 47.635 29.3525C48.06 29.795 48.635 30.46 49.21 31.3375C50.36 33.09 51.51 35.67 51.51 39.01C51.5198 41.7357 50.7192 44.4028 49.21 46.6725C48.635 47.5475 48.06 48.2075 47.635 48.6475C47.4338 48.8565 47.2236 49.0567 47.005 49.2475L46.9775 49.2725H46.975C46.7227 49.4813 46.5624 49.7808 46.5286 50.1065C46.4948 50.4322 46.5902 50.7582 46.7943 51.0144C46.9984 51.2705 47.2948 51.4363 47.6198 51.4762C47.9449 51.5161 48.2726 51.4268 48.5325 51.2275L48.615 51.16L48.8025 50.9975C48.96 50.855 49.1775 50.6525 49.435 50.385C50.1284 49.665 50.7528 48.8815 51.3 48.045C53.0759 45.3672 54.0181 42.2231 54.0075 39.01C54.0141 35.7944 53.0723 32.6481 51.3 29.965C50.7527 29.1277 50.1292 28.3427 49.4375 27.62C49.176 27.3486 48.9024 27.0892 48.6175 26.8425L48.56 26.795L48.5425 26.78L48.5375 26.775L48.5325 26.7725Z" fill="white"/>
</svg>
